<?xml version="1.0" encoding="utf-8"?>
<!-- Generator: Adobe Illustrator 22.0.1, SVG Export Plug-In . SVG Version: 6.00 Build 0)  -->
<svg version="1.1" id="Layer_1" xmlns="http://www.w3.org/2000/svg" xmlns:xlink="http://www.w3.org/1999/xlink" x="0px" y="0px"
	 viewBox="0 0 45 45" style="enable-background:new 0 0 45 45;" xml:space="preserve">
<style type="text/css">
	.st0{fill:none;stroke:#56575B;stroke-width:1.5543;stroke-miterlimit:10;}
	.st1{clip-path:url(#SVGID_2_);}
	.st2{fill:#F9A027;}
	.st3{clip-path:url(#SVGID_4_);}
	.st4{fill:none;stroke:#56575B;stroke-width:1.4404;stroke-miterlimit:10;}
	.st5{fill:none;stroke:#56575B;stroke-miterlimit:10;}
	.st6{fill:none;stroke:#F9A027;stroke-width:0.3886;stroke-miterlimit:10;}
</style>
<title>ulive icons_200px200px_24112017</title>
<path class="st0" d="M43,29.7C39.1,41,26.7,47,15.4,43C9.6,41,4.9,36.7,2.5,31"/>
<g>
	<defs>
		<path id="SVGID_1_" d="M4.4,33.5c-0.7-1.2-1.4-2.6-1.8-3.9L1,29.7l-0.4,1.1l-0.8,2l-0.2,1.9c0,0,1.2,0,1.2,0c0,0,1.6-0.4,1.7-0.4
			c0.1,0,1-0.5,1-0.5L4.4,33.5z"/>
	</defs>
	<clipPath id="SVGID_2_">
		<use xlink:href="#SVGID_1_"  style="overflow:visible;"/>
	</clipPath>
	<g class="st1">
		<polygon class="st2" points="2.6,29.5 1,34.2 6.4,33.1 		"/>
	</g>
</g>
<path class="st0" d="M1.9,15.3C5.9,4,18.3-2,29.6,2C35.4,4,40,8.3,42.4,14"/>
<g>
	<defs>
		<path id="SVGID_3_" d="M40.6,11.6c0.7,1.2,1.4,2.6,1.8,3.9l1.6-0.2l0.4-1.1l0.8-2l0.2-2c0,0-1.2,0-1.2,0s-1.6,0.4-1.7,0.4
			s-1,0.5-1,0.5L40.6,11.6z"/>
	</defs>
	<clipPath id="SVGID_4_">
		<use xlink:href="#SVGID_3_"  style="overflow:visible;"/>
	</clipPath>
	<g class="st3">
		<polygon class="st2" points="42.4,15.5 44,10.9 38.6,12 		"/>
	</g>
</g>
<path class="st4" d="M26.6,28.1H14.5c-0.1-1.4-1.2-2.4-2.6-2.6v-6c1.4-0.1,2.4-1.2,2.6-2.6h15.9c0.1,1.4,1.2,2.5,2.6,2.6v6
	c-1.4,0.1-2.5,1.2-2.6,2.6H26"/>
<rect x="9.1" y="14.7" class="st0" width="26.7" height="15.6"/>
<circle class="st5" cx="22.5" cy="22.5" r="3.6"/>
<line class="st6" x1="21.2" y1="20.9" x2="23.9" y2="20.9"/>
<line class="st6" x1="21.6" y1="21.6" x2="23.6" y2="21.6"/>
<path class="st6" d="M22.1,20.9c0,0,0.8,0.1,0.7,0.7c0,0,0,0.8-1.3,0.6l0,0l1.5,2"/>
</svg>
