<?xml version="1.0" encoding="utf-8"?>
<!-- Generator: Adobe Illustrator 22.0.1, SVG Export Plug-In . SVG Version: 6.00 Build 0)  -->
<svg version="1.1" id="Layer_1" xmlns="http://www.w3.org/2000/svg" xmlns:xlink="http://www.w3.org/1999/xlink" x="0px" y="0px"
	 viewBox="0 0 45 45" style="enable-background:new 0 0 45 45;" xml:space="preserve">
<style type="text/css">
	.st0{fill:none;stroke:#56575B;stroke-width:1.0281;stroke-miterlimit:10;}
	.st1{fill:none;stroke:#F9A027;stroke-width:1.0281;stroke-miterlimit:10;}
</style>
<g>
	<g>
		<path class="st0" d="M10.9,17.2c-1,0-1.9,0.7-2.2,1.8c-1.8,6.4,3.1,11.2,3.2,11.3l6.3,7.5c0.3,0.4,0.8,0.7,1.1,0.7h14.1
			c0.3,0,0.6-0.3,0.7-0.7l3.5-17.1c0,0,0-0.1,0-0.1l0-0.1l2.6-9.7c0.3-1.3-0.3-2.6-1.5-3c-0.2-0.1-0.4-0.1-0.6-0.1
			c-1,0-1.8,0.7-2.1,1.7l-2.6,9.4l-0.8-0.2l1.9-13.1c0.2-1.3-0.6-2.5-1.8-2.7c-1.2-0.2-2.3,0.7-2.5,2l-1.9,12.9l-0.8-0.1L28.1,3
			c0-0.6-0.2-1.3-0.6-1.7c-0.4-0.5-0.9-0.7-1.5-0.8l-0.1,0c-1.2,0-2.2,1-2.2,2.3l-0.4,12.3l-0.7-1.3c-0.3-0.5-0.5-0.9-0.8-1.3
			c-0.7-1-2.4-2.6-4.8-2.6c-1.7,0-3.4,0.7-5.1,2.2c-0.5,0.4-0.8,1-0.9,1.7c-0.1,0.7,0.1,1.3,0.5,1.9c0.4,0.6,1.1,1,1.8,1
			c0.5,0,1-0.2,1.4-0.5c0.9-0.8,1.7-1.1,2.3-1.1c0.8,0,1.2,0.5,1.3,0.8c1.5,1.9,1.7,6.4,0,8.2c-1.3,1.3-2.8,1.6-4,0.8
			c-1-0.6-1.7-2.1-1.1-4.4c0.4-1.3-0.3-2.7-1.5-3.1C11.4,17.2,11.1,17.2,10.9,17.2z"/>
	</g>
	<path class="st1" d="M32.9,44.7H20.4c-0.8,0-1.4-0.6-1.4-1.4v-2c0-0.8,0.6-1.4,1.4-1.4h12.6c0.8,0,1.4,0.6,1.4,1.4v2
		C34.3,44,33.7,44.7,32.9,44.7z"/>
</g>
</svg>
