<?xml version="1.0" encoding="utf-8"?>
<!-- Generator: Adobe Illustrator 22.0.1, SVG Export Plug-In . SVG Version: 6.00 Build 0)  -->
<svg version="1.1" id="Layer_1" xmlns="http://www.w3.org/2000/svg" xmlns:xlink="http://www.w3.org/1999/xlink" x="0px" y="0px"
	 viewBox="0 0 45 45" style="enable-background:new 0 0 45 45;" xml:space="preserve">
<style type="text/css">
	.st0{fill:none;stroke:#54565A;stroke-width:1.5581;stroke-miterlimit:10;}
	.st1{fill:none;stroke:#F9A027;stroke-width:1.5581;stroke-miterlimit:10;}
</style>
<title>ulive icons_200px200px_24112017</title>
<path class="st0" d="M13.5,36.7c8.6,8.6,15.2,10.8,23.1,3c1.2-1.2,2.4-2.8,0.7-4.5L31,30.3c-2-1.1-2.8-0.3-3.7,0.7
	c-3.4,3.9-7.2,2.6-9.7,0l-3.7-3.7c-2.6-2.5-3.8-6.2,0-9.7c1.1-0.9,1.8-1.7,0.7-3.7L9.8,7.6C8.2,6,6.6,7.2,5.4,8.4
	c-7.8,7.8-5.6,14.4,3,23.1L13.5,36.7z"/>
<path class="st1" d="M25.1,10.6c5.4,0,9.8,4.4,9.8,9.8c0,0,0,0,0,0"/>
<path class="st1" d="M23,0.8c11.9,0,21.5,9.6,21.5,21.5"/>
</svg>
