<?xml version="1.0" encoding="utf-8"?>
<!-- Generator: Adobe Illustrator 22.0.1, SVG Export Plug-In . SVG Version: 6.00 Build 0)  -->
<svg version="1.1" id="Layer_1" xmlns="http://www.w3.org/2000/svg" xmlns:xlink="http://www.w3.org/1999/xlink" x="0px" y="0px"
	 viewBox="0 0 45 45" style="enable-background:new 0 0 45 45;" xml:space="preserve">
<style type="text/css">
	.st0{fill:none;stroke:#54565A;stroke-width:1.5538;stroke-miterlimit:10;}
	.st1{fill:none;stroke:#57585C;stroke-width:1.5538;stroke-miterlimit:10;}
	.st2{fill:none;stroke:#F9A027;stroke-width:1.5538;stroke-miterlimit:10;}
</style>
<title>New Icons 200x200px</title>
<path class="st0" d="M14.1,7.6h9.8c1.6-1.5,3.7-3.9,3.8-5c0-0.1,0-0.1,0-0.2c0,0-0.2-0.1-0.5-0.1c-0.5,0-1,0.1-1.6,0.2
	c-1,0.2-2.1,0.4-2.9,0.2c-0.7-0.3-1.4-0.6-2-1.1c-0.6-0.4-1.2-0.9-1.7-0.9s-1.1,0.4-1.7,0.9c-0.6,0.5-1.3,0.8-2,1.1
	c-0.8,0.2-1.9,0.1-2.9-0.2c-0.5-0.1-1-0.2-1.6-0.2c-0.2,0-0.3,0-0.5,0.1c0,0,0,0,0,0.2C10.4,3.7,12.5,6.1,14.1,7.6z"/>
<path class="st0" d="M34.8,27C33.5,20.7,29.3,12.9,24,9.4H14C7.5,13.7,2.8,24.2,2.8,30.9c0,8.5,6.7,9.1,16.2,9.1
	c2.4,0,4.7-0.1,7.1-0.3"/>
<path class="st0" d="M15.3,16.1c0-3.8,1.7-6.8,3.7-6.8s3.7,3.1,3.7,6.8"/>
<line class="st0" x1="13.7" y1="21" x2="24.3" y2="21"/>
<line class="st0" x1="15.1" y1="24" x2="23.1" y2="24"/>
<path class="st0" d="M17.5,21c0,0,3,0.4,2.9,2.9c0,0,0,3-5.1,2.6l0,0l6,7.8"/>
<path class="st1" d="M25,35.7c0-4.8,3.9-8.6,8.6-8.6c4.8,0,8.6,3.9,8.6,8.6c0,4.8-3.9,8.6-8.6,8.6c0,0,0,0,0,0
	C28.9,44.3,25,40.4,25,35.7L25,35.7z"/>
<polyline class="st2" points="29.3,38 33.6,33.7 37.9,38 "/>
</svg>
