<?xml version="1.0" encoding="utf-8"?>
<!-- Generator: Adobe Illustrator 22.0.1, SVG Export Plug-In . SVG Version: 6.00 Build 0)  -->
<svg version="1.1" id="Layer_1" xmlns="http://www.w3.org/2000/svg" xmlns:xlink="http://www.w3.org/1999/xlink" x="0px" y="0px"
	 viewBox="0 0 45 45" style="enable-background:new 0 0 45 45;" xml:space="preserve">
<style type="text/css">
	.st0{fill:none;stroke:#56575B;stroke-width:1.5088;stroke-miterlimit:10;}
	.st1{fill:none;stroke:#56575B;stroke-width:1.521;stroke-miterlimit:10;}
	.st2{fill:none;stroke:#56575B;stroke-width:0.4013;stroke-miterlimit:10;}
	.st3{fill:none;stroke:#F9A027;stroke-width:1.5088;stroke-miterlimit:10;}
</style>
<title>ulive icons_200px200px_24112017</title>
<path class="st0" d="M24.3,34.3H6.6c-0.2-2-1.8-3.6-3.8-3.8v-8.9c2-0.2,3.6-1.8,3.8-3.8H30c0.2,2,1.8,3.6,3.8,3.8v6.8"/>
<polyline class="st0" points="24.7,36.3 0.7,36.3 0.7,15.8 35.8,15.8 35.8,28.8 "/>
<circle class="st0" cx="18.3" cy="26" r="4.7"/>
<polyline class="st1" points="9,15.6 9,8.1 44.3,8.1 44.3,28.8 36,28.8 "/>
<path class="st0" d="M22.8,15.6c1.6-2,4.5-2.4,6.6-0.8c0.3,0.2,0.6,0.5,0.8,0.8"/>
<path class="st1" d="M11,15.7V14c2-0.2,3.6-1.8,3.8-3.8h23.6c0.2,2,1.8,3.6,3.8,3.8v8.9c-2,0.2-3.6,1.8-3.8,3.8H36"/>
<line class="st2" x1="16.6" y1="23.9" x2="20.1" y2="23.9"/>
<line class="st2" x1="17.1" y1="24.9" x2="19.7" y2="24.9"/>
<path class="st2" d="M17.8,23.9c0,0,1,0.1,0.9,1c0,0,0,1-1.7,0.8l0,0l2,2.6"/>
<path class="st3" d="M28.1,35.8L28.1,35.8l1,1.2l1.5,1.8l0.6-0.6l5-5.1l0.4-0.4"/>
<circle class="st1" cx="32.6" cy="36" r="7.9"/>
</svg>
