<?xml version="1.0" encoding="utf-8"?>
<!-- Generator: Adobe Illustrator 22.0.1, SVG Export Plug-In . SVG Version: 6.00 Build 0)  -->
<svg version="1.1" id="Layer_1" xmlns="http://www.w3.org/2000/svg" xmlns:xlink="http://www.w3.org/1999/xlink" x="0px" y="0px"
	 viewBox="0 0 45 45" style="enable-background:new 0 0 45 45;" xml:space="preserve">
<style type="text/css">
	.st0{fill:none;stroke:#54565A;stroke-width:1.2;stroke-miterlimit:10;}
	.st1{fill:none;stroke:#54565A;stroke-width:1.5509;stroke-miterlimit:10;}
	.st2{fill:none;stroke:#F9A027;stroke-width:1.5509;stroke-miterlimit:10;}
</style>
<title>ulive icons_200px200px_24112017</title>
<path id="_Path_" class="st0" d="M0.8,34.8h18.6c0,0,0,0,0,0.1c0,0.8,0.1,0.9,0.8,0.9h4.3c0.9,0,0.9,0,0.9-0.9h18.7
	c0,0.5,0,0.9-0.1,1.4c-0.1,0.6-0.6,1-1.2,1H2.3c-1.1,0-1.6-0.4-1.6-1.7V34.8z"/>
<path class="st1" d="M6.2,7.9h32.6c1.6,0,2.9,1.3,2.9,2.9v19.4c0,1.6-1.3,2.9-2.9,2.9H6.2c-1.6,0-2.9-1.3-2.9-2.9V10.7
	C3.3,9.1,4.6,7.9,6.2,7.9z"/>
<circle class="st1" cx="11.9" cy="18.5" r="1.9"/>
<path class="st1" d="M8.9,24.7c-0.1-1.7,1.2-3,2.9-3.1c1.7-0.1,3,1.2,3.1,2.9c0,0.1,0,0.1,0,0.2"/>
<line class="st2" x1="18.7" y1="16.5" x2="36.7" y2="16.5"/>
<line class="st2" x1="18.7" y1="20.4" x2="36.7" y2="20.4"/>
<line class="st2" x1="18.7" y1="24.3" x2="31.5" y2="24.3"/>
</svg>
