<?xml version="1.0" encoding="utf-8"?>
<!-- Generator: Adobe Illustrator 22.0.1, SVG Export Plug-In . SVG Version: 6.00 Build 0)  -->
<svg version="1.1" id="Layer_1" xmlns="http://www.w3.org/2000/svg" xmlns:xlink="http://www.w3.org/1999/xlink" x="0px" y="0px"
	 viewBox="0 0 45 45" style="enable-background:new 0 0 45 45;" xml:space="preserve">
<style type="text/css">
	.st0{fill:none;stroke:#54565A;stroke-width:1.5531;stroke-miterlimit:10;}
	.st1{fill:none;stroke:#F9A027;stroke-width:1.5531;stroke-miterlimit:10;}
</style>
<title>ulive icons_200px200px_24112017</title>
<path class="st0" d="M15.7,2.2c0.5,0.2,1.1,0.3,1.6,0.4c1.1,0.2,2.1-0.2,2.9-0.9c1.4-1.2,3.1-1.2,4.5,0c1,0.9,2.4,1.2,3.7,0.7
	c1.7-0.6,3.3,0.1,4.1,1.7c0.6,1.2,1.8,2,3.1,2c1.7,0.1,3,1.4,3.1,3.1c0,1.4,0.8,2.6,2,3.1c1.6,0.7,2.3,2.5,1.7,4.1
	c-0.5,1.3-0.2,2.8,0.8,3.9c1.1,1.2,1.1,3.1,0,4.3c-1,1-1.3,2.5-0.8,3.8c0.5,1.6-0.2,3.3-1.7,4.1c-1.3,0.6-2.1,1.8-2.1,3.2
	c-0.1,1.6-1.3,2.9-3,3.1c-1.6,0.1-2.7,0.8-3.4,2.2c-0.7,1.4-2.3,2.1-3.8,1.6c-1.6-0.5-2.9-0.3-4.1,0.8c-1.2,1-3,1-4.1,0
	c-1.1-1-2.7-1.4-4-0.8c-1.5,0.5-3.2-0.2-3.9-1.7c-0.6-1.4-1.7-2.1-3.2-2.2c-1.7-0.1-3-1.4-3.1-3.1c0-1.5-0.8-2.6-2.1-3.2
	c-1.5-0.7-2.2-2.4-1.7-3.9c0.5-1.5,0.3-2.9-0.8-4.1c-1-1.2-1-3,0-4.2c1-1.1,1.3-2.7,0.8-4.1c-0.5-1.5,0.2-3.2,1.6-3.8
	c1.3-0.6,2.2-1.9,2.2-3.3c0.1-1.7,1.5-3,3.1-3c1.3,0,2.6-0.8,3.1-2C13,2.8,14.3,2.1,15.7,2.2z"/>
<circle class="st0" cx="22.5" cy="22.5" r="17.6"/>
<path class="st1" d="M12.4,22.3l0.2,0.2c0.8,0.9,1.5,1.8,2.3,2.7l3.6,4.3l1.5-1.5l11.7-11.8l1-1"/>
</svg>
