<?xml version="1.0" encoding="utf-8"?>
<!-- Generator: Adobe Illustrator 22.0.1, SVG Export Plug-In . SVG Version: 6.00 Build 0)  -->
<svg version="1.1" id="Layer_1" xmlns="http://www.w3.org/2000/svg" xmlns:xlink="http://www.w3.org/1999/xlink" x="0px" y="0px"
	 viewBox="0 0 45 45" style="enable-background:new 0 0 45 45;" xml:space="preserve">
<style type="text/css">
	.st0{fill:none;stroke:#54565A;stroke-width:1.5836;stroke-miterlimit:10;}
	.st1{fill:none;stroke:#F9A027;stroke-width:1.5836;stroke-miterlimit:10;}
</style>
<title>ulive icons_200px200px_24112017</title>
<path class="st0" d="M3.1,0.7h8.8c1.1,0,2,0.9,2,2v39.8c0,1.1-0.9,2-2,2H3.1c-1.1,0-2-0.9-2-2V2.6C1.1,1.5,2,0.7,3.1,0.7z"/>
<line class="st1" x1="3.6" y1="7.5" x2="11.3" y2="7.5"/>
<line class="st1" x1="3.6" y1="13.3" x2="11.3" y2="13.3"/>
<circle class="st0" cx="7.5" cy="30.4" r="3.4"/>
<path class="st0" d="M15.8,0.7h8.8c1.1,0,2,0.9,2,2v39.8c0,1.1-0.9,2-2,2h-8.8c-1.1,0-2-0.9-2-2V2.6C13.8,1.5,14.7,0.7,15.8,0.7z"/>
<line class="st1" x1="16.4" y1="7.5" x2="24" y2="7.5"/>
<line class="st1" x1="16.4" y1="13.3" x2="24" y2="13.3"/>
<circle class="st0" cx="20.2" cy="30.4" r="3.4"/>
<path class="st0" d="M29.3,1.2L38,0.3c1.1-0.1,2,0.7,2.1,1.8l3.7,39.6c0.1,1.1-0.7,2-1.8,2.1l-8.8,0.8c-1.1,0.1-2-0.7-2.1-1.8
	L27.5,3.3C27.4,2.2,28.2,1.3,29.3,1.2z"/>
<line class="st1" x1="30.5" y1="8" x2="38.1" y2="7.3"/>
<line class="st1" x1="31" y1="13.7" x2="38.7" y2="13"/>
<circle class="st0" cx="36.4" cy="30.4" r="3.4"/>
</svg>
