<?xml version="1.0" encoding="utf-8"?>
<!-- Generator: Adobe Illustrator 22.0.1, SVG Export Plug-In . SVG Version: 6.00 Build 0)  -->
<svg version="1.1" id="Layer_1" xmlns="http://www.w3.org/2000/svg" xmlns:xlink="http://www.w3.org/1999/xlink" x="0px" y="0px"
	 viewBox="0 0 45 45" style="enable-background:new 0 0 45 45;" xml:space="preserve">
<style type="text/css">
	.st0{fill:none;stroke:#56575B;stroke-width:1.5544;stroke-miterlimit:10;}
	.st1{fill:none;stroke:#56575B;stroke-miterlimit:10;}
	.st2{fill:none;stroke:#F9A027;stroke-width:1.5544;stroke-miterlimit:10;}
</style>
<title>ulive icons_200px200px_24112017</title>
<line class="st0" x1="0.7" y1="14.8" x2="44.3" y2="14.8"/>
<polyline class="st1" points="39.4,23.2 34.8,23.2 34.8,18.6 "/>
<polyline class="st1" points="32.2,23.2 27.6,23.2 27.6,18.6 "/>
<polyline class="st1" points="25,23.2 20.4,23.2 20.4,18.6 "/>
<polyline class="st1" points="39.4,29.9 34.8,29.9 34.8,25.3 "/>
<polyline class="st1" points="32.2,29.9 27.6,29.9 27.6,25.3 "/>
<polyline class="st1" points="25,29.9 20.4,29.9 20.4,25.3 "/>
<polyline class="st1" points="17.9,29.9 13.3,29.9 13.3,25.3 "/>
<polyline class="st1" points="10.7,29.9 6.1,29.9 6.1,25.3 "/>
<polyline class="st1" points="32.2,36.5 27.6,36.5 27.6,31.9 "/>
<polyline class="st1" points="25,36.5 20.4,36.5 20.4,31.9 "/>
<polyline class="st1" points="17.9,36.5 13.3,36.5 13.3,31.9 "/>
<polyline class="st1" points="10.7,36.5 6.1,36.5 6.1,31.9 "/>
<line class="st2" x1="32.6" y1="4.2" x2="32.6" y2="10.5"/>
<line class="st2" x1="22.5" y1="4.2" x2="22.5" y2="10.5"/>
<line class="st2" x1="12.5" y1="4.2" x2="12.5" y2="10.5"/>
<rect x="0.7" y="7.4" class="st0" width="43.5" height="33.4"/>
</svg>
